<svg xmlns="http://www.w3.org/2000/svg" xmlns:xlink="http://www.w3.org/1999/xlink" data-v-0dd9719b="" version="1.0" width="100%" height="100%" viewBox="0 0 350.000000 350.000000" preserveAspectRatio="xMidYMid meet" color-interpolation-filters="sRGB" style="margin: auto;"> <rect data-v-0dd9719b="" x="0" y="0" width="100%" height="100%" fill="#aaaaaa" fill-opacity=".23" class="background"/>  <g data-v-0dd9719b="" fill="#ffffff" class="icon-text-wrapper icon-svg-group iconsvg" transform="translate(93.57147979736328,68.5999984741211)"><g class="iconsvg-imagesvg" transform="translate(0,0)" mask="url(#083bd627-18fd-41e6-a6b5-02bc6f3d8268)"><g><rect fill="#ffffff" fill-opacity="0" stroke-width="2" x="0" y="0" width="112.80000000000004" height="112.80000000000004" class="image-rect"/> <svg filter="url(#colors2175282017)" x="0" y="0" width="112.80000000000004" height="112.80000000000004" filtersec="colorsf8607485463" class="image-svg-svg primary" style="overflow: visible;"><svg xmlns="http://www.w3.org/2000/svg" viewBox="0 0 424 424"><defs><linearGradient id="a6369fc14-ecb3-4ef7-a49d-fa8227a7c376" x1="424" y1="212" x2="0" y2="212" gradientUnits="userSpaceOnUse"><stop offset="0" stop-opacity="0"/><stop offset="1"/></linearGradient></defs><circle cx="212" cy="212" r="212" fill="url(#a6369fc14-ecb3-4ef7-a49d-fa8227a7c376)"/></svg></svg> <defs><filter id="colors2175282017"><feColorMatrix type="matrix" values="0 0 0 0 0.80078125  0 0 0 0 0.546875  0 0 0 0 0.1640625  0 0 0 1 0" class="icon-fecolormatrix"/></filter> <filter id="colorsf8607485463"><feColorMatrix type="matrix" values="0 0 0 0 0.99609375  0 0 0 0 0.99609375  0 0 0 0 0.99609375  0 0 0 1 0" class="icon-fecolormatrix"/></filter> <filter id="colorsb5533667087"><feColorMatrix type="matrix" values="0 0 0 0 0  0 0 0 0 0  0 0 0 0 0  0 0 0 1 0" class="icon-fecolormatrix"/></filter></defs></g><rect v-gra="id" width="124.80000305175781" height="124.80000305175781" transform="translate(-6, -6)" style="pointer-events:none;" fill="url(#qCEHKXL8SLCmvA0KVc7AR)"/></g> <g transform="translate(47.94296646118164,18.800003051757812)"><g data-gra="path-name" fill-rule="" class="tp-name iconsvg-namesvg" transform="translate(0,0)"><g transform="scale(0.9199999999999999)"><g><path d="M36.76-11.64L23.52-11.64C21.6-11.64 20.32-10.36 20.32-8.44L20.32 0C20.32 1.92 21.6 3.2 23.52 3.2L36.76 3.2C38.68 3.2 39.96 1.92 39.96 0L39.96-8.44C39.96-10.36 38.68-11.64 36.76-11.64ZM25.56-7.48L34.72-7.48C35.12-7.48 35.32-7.28 35.32-6.88L35.32-1.56C35.32-1.16 35.12-0.96 34.72-0.96L25.56-0.96C25.16-0.96 24.96-1.16 24.96-1.56L24.96-6.88C24.96-7.28 25.16-7.48 25.56-7.48ZM37.36-18.64L38.44-23.16 33.84-23.16 32.76-18.64 27.32-18.64 26.28-23.16 21.68-23.16 22.72-18.64 18.28-18.64 18.64-14.48 41.32-14.48 41.32-18.64ZM32.48-28.76L32.48-32 27.68-32 27.68-28.76 19.48-28.76 19.84-24.6 40.08-24.6 40.08-28.76ZM11.04-3.68C11.72-3.6 12.52-3.56 13.52-3.56 16.44-3.56 18.32-5.04 18.32-8.96 18.32-12.04 17.64-15.4 15.88-17.88L18.16-26.36C18.36-27.08 18.52-27.88 18.44-28.8 18.32-30.4 17.56-31.04 15.92-31.04L9-31.04C7.36-31.04 6.48-30.2 6.48-28.64L6.48 3.96 11.04 3.96ZM11.04-7.48L11.04-26.8C11.04-27.04 11.2-27.2 11.44-27.2L13.84-27.2 11.92-18.32C11.76-17.56 11.84-16.92 12.24-16.2 13.24-14.32 13.92-11.48 13.92-9 13.92-7.72 13.32-7.4 12.4-7.4 12.04-7.4 11.56-7.44 11.04-7.48ZM71.44-21.36L76-21.36 77.4-29.12 72.84-29.12ZM55.72-29.12L57.12-21.36 61.68-21.36 60.28-29.12ZM68.96-5.6L79.56-5.6 79.56-9.76 68.96-9.76 68.96-14.56 78.68-14.56 78.68-18.72 68.96-18.72 68.96-32 64.08-32 64.08-18.72 54.56-18.72 54.96-14.56 64.08-14.56 64.08-9.76 53.56-9.76 53.96-5.6 64.08-5.6 64.08 4 68.96 4ZM47.36-18.16C51.68-21.52 54.32-26.52 55.48-32L50.4-32C49.44-27.76 47.16-23.16 42.8-19.52L44.28-15.24 47.16-15.24 47.16 4 52.04 4 52.04-15.36C52.04-17.16 51.04-18.16 49.24-18.16Z" transform="translate(-6.480000019073486, 32)"/></g> <!----> <!----> <!----> <!----> <!----> <!----> <g data-gra="path-name-1" fill="#ffffff" transform="translate(0,39)"><g transform="scale(1)"><path d="M28.36 3.2L28.36 3.2Q28.52 3.4 29.63 3.2 30.74 3.01 31.56 2.62L31.56 2.62Q33.91 1.52 34.8-2.64 35.7-6.8 36.02-17.97L36.02-17.97Q36.17-23.79 36.37-24.26L36.37-24.26Q36.52-24.61 37.07-24.88L37.07-24.88Q37.89-25.31 37.7-25.63L37.7-25.63Q37.5-26.02 36.31-27.15 35.12-28.28 34.65-28.52L34.65-28.52Q34.41-28.67 34.18-28.55 33.95-28.44 33.4-27.77L33.4-27.77Q32.42-26.68 31.97-26.54 31.52-26.41 28.87-26.41L28.87-26.41Q28.63-26.41 28.24-26.41L28.24-26.41Q25.9-26.41 25.63-26.72L25.63-26.72Q25.43-26.99 26.05-28.55L26.05-28.55Q26.17-28.79 26.21-28.91L26.21-28.91Q26.95-30.63 27.19-31.05 27.42-31.48 27.81-31.64L27.81-31.64Q28.63-32.03 26.68-32.77L26.68-32.77Q25.74-33.13 23.87-33.71L23.87-33.71Q23.2-33.91 23.09-33.75L23.09-33.75Q23.05-33.63 22.93-32.66L22.93-32.66Q22.3-26.91 19.3-20L19.3-20Q18.28-17.77 17.97-17.73L17.97-17.73Q17.77-17.7 17.7-18.24L17.7-18.24Q17.58-18.95 17.54-21.05L17.54-21.05Q17.54-23.59 17.66-24.06 17.77-24.53 18.52-24.96L18.52-24.96Q18.83-25.12 18.91-25.31 18.98-25.51 18.79-25.78 18.59-26.05 18.18-26.45 17.77-26.84 16.99-27.42L16.99-27.42Q15.86-28.28 15.57-28.28 15.27-28.28 14.49-27.34L14.49-27.34Q13.98-26.72 12.95-26.39 11.91-26.05 11.07-26.19 10.23-26.33 10.23-26.88L10.23-26.88Q10.23-27.34 11.66-29.47 13.09-31.6 13.48-31.76L13.48-31.76Q14.69-32.15 12.81-32.81L12.81-32.81Q11.99-33.09 10.39-33.52L10.39-33.52Q9.1-33.83 8.96-33.73 8.83-33.63 8.75-32.38L8.75-32.38Q8.75-31.09 8.59-29.84L8.59-29.84Q8.48-28.71 8.42-28.22 8.36-27.73 8.18-27.21 8.01-26.68 7.89-26.58 7.77-26.48 7.34-26.5 6.91-26.52 6.52-26.7 6.13-26.88 5.31-27.27L5.31-27.27Q3.67-28.01 3.63-28.01L3.63-28.01Q3.48-28.01 3.63-26.48L3.63-26.48Q3.91-23.71 3.91-14.69L3.91-14.69Q3.91-5.08 3.63-0.74L3.63-0.74Q3.48 1.33 3.83 1.76 4.18 2.19 5.59 1.8L5.59 1.8Q6.64 1.48 6.97 1.04 7.3 0.59 7.27-0.55L7.27-0.55Q7.23-1.95 7.64-2.17 8.05-2.38 10.63-2.38L10.63-2.38Q13.16-2.38 13.55-2.19 13.95-1.99 13.95-0.74 13.95 0.51 14.61 0.68 15.27 0.86 16.88 0.04L16.88 0.04Q16.99 0 17.15-0.08L17.15-0.08Q17.66-0.27 17.71-0.72 17.77-1.17 17.7-3.71L17.7-3.71Q17.66-4.8 17.62-5.47L17.62-5.47Q17.54-8.05 17.54-12.29 17.54-16.52 17.66-16.84L17.66-16.84Q17.85-17.42 18.01-17.5L18.01-17.5Q18.05-17.5 18.01-17.34L18.01-17.34Q17.97-17.15 18.13-17.05 18.28-16.95 18.48-16.99L18.48-16.99Q18.95-17.15 20.74-19.47 22.54-21.8 23.67-23.75L23.67-23.75Q24.34-24.92 24.88-25.1 25.43-25.27 28.52-25.27L28.52-25.27Q28.91-25.27 29.61-25.27L29.61-25.27Q31.88-25.31 32.23-24.96L32.23-24.96Q32.58-24.61 32.54-22.85L32.54-22.85Q32.54-22.3 32.54-21.99L32.54-21.99Q32.46-8.95 31.29-3.71L31.29-3.71Q30.86-1.84 29.86-1.46 28.87-1.09 25.27-1.41L25.27-1.41Q23.52-1.56 23.52-1.37L23.52-1.37Q23.52-1.29 23.55-1.21L23.55-1.21Q23.59-0.98 24.61-0.7L24.61-0.7Q28.24 0.12 28.24 2.73L28.24 2.73Q28.24 3.09 28.36 3.2ZM13.59-3.71L13.59-3.71Q13.32-3.52 10.63-3.52L10.63-3.52Q8.2-3.52 7.93-3.59L7.93-3.59Q7.27-3.83 7.19-5.2L7.19-5.2Q7.19-5.43 7.19-8.95L7.19-8.95Q7.19-9.41 7.19-10.27L7.19-10.27Q7.19-13.16 7.54-13.63L7.54-13.63Q7.85-14.1 9.41-14.06L9.41-14.06Q9.49-14.06 9.73-14.06L9.73-14.06Q10.27-14.06 10.63-14.06L10.63-14.06Q10.98-14.06 11.52-14.06L11.52-14.06Q13.44-14.1 13.75-13.61 14.06-13.13 14.06-10.27L14.06-10.27Q14.06-9.41 14.06-8.95L14.06-8.95Q14.06-5.27 14-4.61 13.95-3.95 13.59-3.71ZM13.59-15.39L13.59-15.39Q13.32-15.2 10.63-15.2L10.63-15.2Q8.2-15.2 7.89-15.31L7.89-15.31Q7.27-15.55 7.19-16.99L7.19-16.99Q7.19-17.11 7.19-20.35L7.19-20.35Q7.19-20.82 7.19-21.64L7.19-21.64Q7.19-24.34 7.5-24.77L7.5-24.77Q7.81-25.2 9.38-25.2L9.38-25.2Q9.45-25.2 9.61-25.2L9.61-25.2Q10.2-25.2 10.55-25.2L10.55-25.2Q10.9-25.2 11.45-25.2L11.45-25.2Q13.4-25.23 13.73-24.77 14.06-24.3 14.06-21.56L14.06-21.56Q14.06-20.82 14.06-20.35L14.06-20.35Q14.06-16.88 14-16.23 13.95-15.59 13.59-15.39ZM25.78-9.14L25.78-9.14Q26.76-8.83 27.5-9.41 28.24-10 28.32-11.13L28.32-11.13Q28.4-12.89 27.05-14.53 25.7-16.17 23.09-17.42L23.09-17.42Q21.33-18.28 21.33-17.97L21.33-17.97Q21.29-17.73 21.88-16.88L21.88-16.88Q24.41-13.13 24.92-10L24.92-10Q25-9.45 25.78-9.14ZM42.62 3.09L42.62 3.09Q42.73 3.32 43.05 3.24 43.36 3.16 44.45 2.58L44.45 2.58Q51.8-1.17 55.35-6.43 58.91-11.68 59.92-20.23L59.92-20.23Q59.92-20.39 59.96-20.63L59.96-20.63Q60.08-21.91 60.61-22.11 61.13-22.3 64.14-22.3L64.14-22.3Q64.77-22.3 65.12-22.3L65.12-22.3Q69.18-22.3 69.69-22.15L69.69-22.15Q70.39-21.95 70.39-21.02L70.39-21.02Q70.39-20.94 70.31-19.38L70.31-19.38Q69.96-11.02 69.38-6.99 68.79-2.97 67.81-2.07L67.81-2.07Q67.27-1.6 66.31-1.54 65.35-1.48 62.03-1.76L62.03-1.76Q60-1.95 59.8-1.88L59.8-1.88Q59.65-1.84 59.69-1.64 59.73-1.45 59.92-1.41L59.92-1.41Q62.97-0.66 64.12 0.2 65.27 1.05 65.27 2.54L65.27 2.54Q65.43 3.09 66.35 3.09 67.27 3.09 68.61 2.52 69.96 1.95 70.7 1.17L70.7 1.17Q72.07-0.31 72.83-4.96 73.59-9.61 73.98-18.83L73.98-18.83Q74.06-20.78 74.2-21.19 74.34-21.6 75.08-21.91L75.08-21.91Q75.82-22.27 75.66-22.62 75.51-22.97 74.24-24.12 72.97-25.27 72.46-25.55L72.46-25.55Q72.23-25.7 72.01-25.59 71.8-25.47 71.25-24.8L71.25-24.8Q70.35-23.83 70.08-23.71L70.08-23.71Q69.53-23.44 66.29-23.44L66.29-23.44Q65.66-23.44 65.27-23.44L65.27-23.44Q61.52-23.44 61.13-23.52L61.13-23.52Q60.35-23.71 60.23-24.69L60.23-24.69Q60.23-24.84 60.31-27.77L60.31-27.77Q60.39-30.86 60.51-31.46 60.63-32.07 61.17-32.54L61.17-32.54Q61.64-32.97 60.47-33.24L60.47-33.24Q59.61-33.44 57.54-33.67L57.54-33.67Q56.33-33.79 56.13-33.73 55.94-33.67 56.02-33.2L56.02-33.2Q56.29-31.64 56.37-28.01 56.45-24.38 56.25-24.02L56.25-24.02Q56.05-23.63 55.82-23.55L55.82-23.55Q55.43-23.48 51.84-23.44L51.84-23.44Q46.68-23.44 44.57-23.63L44.57-23.63Q44.06-23.71 44.04-23.59 44.02-23.48 44.41-22.66L44.41-22.66Q44.77-21.91 44.88-21.86 45-21.8 45.78-21.88L45.78-21.88Q47.7-22.15 51.37-22.27 55.04-22.38 55.51-22.19 55.98-21.99 56.07-21.48 56.17-20.98 55.98-19.26L55.98-19.26Q55.12-12.03 52.13-6.93 49.14-1.84 43.44 2.07L43.44 2.07Q42.7 2.54 42.56 2.71 42.42 2.89 42.62 3.09ZM83.01 2.58L83.01 2.58Q83.24 2.97 83.4 3.03 83.55 3.09 84.22 2.97L84.22 2.97Q85.9 2.7 87.99 2.66 90.08 2.62 101.91 2.58L101.91 2.58Q113.59 2.54 115.57 2.48 117.54 2.42 117.58 2.11L117.58 2.11Q117.58 2.07 117.58 2.03L117.58 2.03Q117.77 1.45 114.96-0.74L114.96-0.74Q114.26-1.29 114.02-1.37 113.79-1.45 113.59-1.31 113.4-1.17 112.85-0.47L112.85-0.47Q112.73-0.27 112.5 0L112.5 0Q111.76 1.05 111.25 1.25L111.25 1.25Q110.7 1.45 107.89 1.45L107.89 1.45Q107.11 1.45 106.68 1.45L106.68 1.45Q106.45 1.45 106.05 1.45L106.05 1.45Q102.7 1.45 102.15 1.25 101.6 1.05 101.6-0.04L101.6-0.04Q101.6-0.23 101.6-0.31L101.6-0.31Q101.6-1.6 102.07-1.88L102.07-1.88Q102.27-1.99 107.42-2.01 112.58-2.03 113.24-1.91L113.24-1.91Q113.98-1.8 114.57-2.19L114.57-2.19Q115-2.38 114.8-2.7L114.8-2.7Q114.61-2.97 113.32-4.06L113.32-4.06Q111.84-5.31 111.72-5.51L111.72-5.51Q111.6-5.66 111.56-9.32 111.52-12.97 111.6-13.36L111.6-13.36Q111.84-14.02 112.46-14.3L112.46-14.3Q112.89-14.49 113.01-14.67 113.13-14.84 112.93-15.18 112.73-15.51 112.25-15.92 111.76-16.33 110.74-17.11L110.74-17.11Q109.69-17.97 109.8-18.13L109.8-18.13Q109.96-18.36 113.44-18.4 116.91-18.44 117.21-18.93 117.5-19.41 115.12-21.25L115.12-21.25Q113.98-22.15 113.71-22.13 113.44-22.11 112.58-21.02L112.58-21.02Q112.46-20.82 112.27-20.55L112.27-20.55Q111.88-19.96 111.39-19.79 110.9-19.61 108.73-19.55 106.56-19.49 101.8-19.53L101.8-19.53Q99.45-19.57 98.09-19.57L98.09-19.57Q84.3-19.61 83.01-19.8L83.01-19.8Q82.7-19.84 82.7-19.69L82.7-19.69Q82.66-19.49 83.01-18.83L83.01-18.83Q83.4-18.05 83.57-17.99 83.75-17.93 84.92-18.09L84.92-18.09Q87.11-18.36 97.75-18.44 108.4-18.52 109.02-18.24L109.02-18.24Q109.34-18.09 109.26-17.97L109.26-17.97Q109.22-17.81 108.52-17.03L108.52-17.03Q108.4-16.91 108.2-16.68L108.2-16.68Q107.7-16.02 107.11-15.9L107.11-15.9Q106.37-15.74 102.15-15.74L102.15-15.74Q100.74-15.74 99.92-15.74L99.92-15.74Q99.34-15.74 98.32-15.74L98.32-15.74Q93.79-15.74 92.83-15.84 91.88-15.94 90.59-16.48L90.59-16.48Q90.23-16.64 90.04-16.72L90.04-16.72Q89.61-16.91 89.1-17.13 88.59-17.34 88.36-17.42L88.36-17.42 88.09-17.54Q88.01-17.34 88.03-17.23 88.05-17.11 88.16-15.55L88.16-15.55Q88.28-14.57 88.3-11.33 88.32-8.09 88.24-6.68L88.24-6.68Q88.16-5.2 88.2-4.84 88.24-4.49 88.48-4.38L88.48-4.38Q88.98-4.1 90.37-4.51 91.76-4.92 91.88-5.39L91.88-5.39Q91.99-5.94 92.54-6.09 93.09-6.25 95.08-6.25L95.08-6.25Q97.27-6.25 97.68-6.04 98.09-5.82 98.09-4.65L98.09-4.65Q98.09-3.52 97.58-3.24L97.58-3.24Q97.34-3.13 92.58-3.14 87.81-3.16 86.41-3.28L86.41-3.28Q85.43-3.36 85.35-3.26 85.27-3.16 85.7-2.38L85.7-2.38Q86.05-1.68 86.31-1.6 86.56-1.52 87.93-1.72L87.93-1.72Q90.2-1.99 94.1-1.99L94.1-1.99Q97.34-1.99 97.73-1.76L97.73-1.76Q98.09-1.37 98.09-0.31L98.09-0.31Q98.09 1.05 97.54 1.29L97.54 1.29Q97.15 1.48 91.21 1.45 85.27 1.41 83.2 1.21L83.2 1.21Q82.46 1.17 82.46 1.33 82.46 1.48 83.01 2.58ZM109.26-3.36L109.26-3.36Q108.98-3.2 108.5-3.16 108.01-3.13 105.55-3.13L105.55-3.13Q105.43-3.13 105.27-3.13L105.27-3.13Q102.5-3.13 102.05-3.3 101.6-3.48 101.6-4.53L101.6-4.53Q101.6-4.61 101.6-4.65L101.6-4.65Q101.6-5.82 102.01-6.04 102.42-6.25 104.69-6.25L104.69-6.25Q106.72-6.25 107.29-6.09 107.85-5.94 107.93-5.39L107.93-5.39Q107.97-5.2 108.16-5.2L108.16-5.2Q108.28-5.16 108.91-5.2L108.91-5.2Q109.77-5.2 110-5.14 110.23-5.08 110.23-4.8L110.23-4.8Q110.23-4.57 109.9-4.06 109.57-3.55 109.26-3.36ZM97.62-7.46L97.62-7.46Q97.34-7.27 95-7.32 92.66-7.38 92.38-7.58L92.38-7.58Q91.84-7.93 91.91-8.96 91.99-10 92.58-10.31L92.58-10.31Q92.89-10.47 95.06-10.47 97.23-10.47 97.54-10.31L97.54-10.31Q98.09-10.04 98.13-8.91 98.16-7.77 97.62-7.46ZM107.42-7.58L107.42-7.58Q107.15-7.38 104.75-7.36 102.34-7.34 102.07-7.54L102.07-7.54Q101.52-7.85 101.56-8.95 101.6-10.04 102.15-10.31L102.15-10.31Q102.46-10.47 104.71-10.47 106.95-10.47 107.27-10.31L107.27-10.31Q107.85-10 107.91-8.96 107.97-7.93 107.42-7.58ZM97.62-11.72L97.62-11.72Q97.34-11.52 95-11.56 92.66-11.6 92.38-11.8L92.38-11.8Q91.91-12.11 91.91-13.13 91.91-14.14 92.38-14.45L92.38-14.45Q92.62-14.65 94.96-14.67 97.3-14.69 97.62-14.53L97.62-14.53Q98.13-14.26 98.13-13.14 98.13-12.03 97.62-11.72ZM107.42-11.8L107.42-11.8Q107.15-11.6 104.75-11.58 102.34-11.56 102.07-11.76L102.07-11.76Q101.56-12.03 101.56-13.14 101.56-14.26 102.07-14.53L102.07-14.53Q102.38-14.69 104.79-14.67 107.19-14.65 107.42-14.45L107.42-14.45Q107.89-14.14 107.89-13.13 107.89-12.11 107.42-11.8ZM89.02-20.43L89.02-20.43Q89.69-20.2 90.86-20.59 92.03-20.98 92.3-21.52L92.3-21.52Q92.5-21.91 92.7-21.99L92.7-21.99Q93.2-22.15 99.84-22.15L99.84-22.15Q105.35-22.15 106.21-22.11 107.07-22.07 107.3-21.76L107.3-21.76Q107.42-21.56 107.42-21.33L107.42-21.33Q107.42-21.02 107.89-20.94 108.36-20.86 109.08-21.02 109.8-21.17 110.51-21.52L110.51-21.52Q111.09-21.8 111.15-22.11 111.21-22.42 111.13-24.92L111.13-24.92Q111.02-28.01 111.11-28.75 111.21-29.49 111.84-29.8L111.84-29.8Q112.58-30.23 112.48-30.63 112.38-31.02 111.21-32.03L111.21-32.03Q110.04-33.09 109.59-33.34 109.14-33.59 108.83-33.48 108.52-33.36 107.97-32.62L107.97-32.62Q107.89-32.5 107.73-32.27L107.73-32.27Q107.27-31.56 106.58-31.46 105.9-31.37 101.88-31.41L101.88-31.41Q100.43-31.41 99.57-31.41L99.57-31.41Q94.22-31.41 93.09-31.5 91.95-31.6 90.55-32.19L90.55-32.19Q90.12-32.38 89.59-32.62 89.06-32.85 88.83-32.97L88.83-32.97 88.55-33.05Q88.44-33.05 88.63-30.82L88.63-30.82Q88.63-30.78 88.63-30.7L88.63-30.7Q88.75-29.57 88.75-26.41 88.75-23.24 88.63-22.15L88.63-22.15Q88.55-21.09 88.61-20.82 88.67-20.55 89.02-20.43ZM106.88-23.44L106.88-23.44Q106.56-23.28 99.9-23.26 93.24-23.24 92.93-23.4L92.93-23.4Q92.34-23.67 92.34-24.8 92.34-25.94 92.93-26.21L92.93-26.21Q93.24-26.37 99.9-26.35 106.56-26.33 106.88-26.17L106.88-26.17Q107.46-25.9 107.46-24.8 107.46-23.71 106.88-23.44ZM106.88-27.54L106.88-27.54Q106.6-27.38 99.9-27.34 93.2-27.3 92.89-27.46L92.89-27.46Q92.42-27.7 92.34-28.65 92.27-29.61 92.7-30L92.7-30Q92.89-30.2 99.75-30.25 106.6-30.31 106.91-30.12L106.91-30.12Q107.46-29.8 107.44-28.81 107.42-27.81 106.88-27.54Z" transform="translate(-3.555000066757202, 33.821109771728516)"/></g></g></g></g> <g data-gra="path-slogan" fill-rule="" class="tp-slogan iconsvg-slogansvg" fill="#FFFFFF" transform="translate(5.000003814697266,76.03141784667969)"><rect x="0" height="1" y="2.800400495529175" width="21.350536346435547"/> <rect height="1" y="2.800400495529175" width="21.350536346435547" x="73.56353378295898"/> <g transform="translate(24.350536346435547,0)"><g transform="scale(0.7399999999999998)"><path d="M5.00-3C7.06-3 8.14-3.92 8.14-5.78C8.14-7.49 7.12-8.52 5.08-8.52L2.04-8.52L2.04 0.12L3.56 0.12L3.56-3ZM5.02-7.14C6.06-7.14 6.54-6.71 6.54-5.76C6.54-4.79 6.10-4.37 5.02-4.37L3.56-4.37L3.56-7.14ZM12.79 0.12C14.59 0.12 15.58-0.84 15.58-2.42C15.58-3.48 14.90-4.33 13.92-4.50C14.71-4.64 15.23-5.42 15.23-6.32C15.23-7.58 14.30-8.52 12.72-8.52L9.52-8.52L9.52 0.12ZM12.46-7.30C13.20-7.30 13.64-6.88 13.64-6.17C13.64-5.38 13.20-4.94 12.43-4.94L11.04-4.94L11.04-7.30ZM12.60-3.72C13.52-3.72 14.00-3.22 14.00-2.42C14.00-1.60 13.54-1.12 12.67-1.12L11.04-1.12L11.04-3.72ZM19.91 0.12C22.10 0.12 23.23-0.70 23.39-2.66C23.47-3.70 23.46-4.46 23.41-5.45C23.32-7.49 22.15-8.52 19.92-8.52L17.20-8.52L17.20 0.12ZM19.85-7.07C21.17-7.07 21.77-6.71 21.85-5.27C21.89-4.58 21.89-3.77 21.82-2.88C21.71-1.62 21.06-1.34 19.81-1.34L18.72-1.34L18.72-7.07ZM30.48 0.12L30.48-1.33L26.71-1.33L26.71-8.52L25.19-8.52L25.19 0.12ZM37.09 0.12L37.09-1.33L33.32-1.33L33.32-8.52L31.80-8.52L31.80 0.12ZM39.40-1.46L37.81-1.46L37.81 0.12L39.40 0.12ZM45.76-2.00C45.24-1.36 44.74-1.20 44.05-1.18C43.24-1.18 42.60-1.48 42.48-2.60C42.38-3.49 42.41-4.86 42.44-5.54C42.52-6.78 43.10-7.20 44.05-7.24C44.71-7.24 45.28-7.03 45.66-6.46L46.57-7.66C45.89-8.35 45.13-8.66 44.05-8.66C42.18-8.66 40.93-7.60 40.85-5.69C40.80-4.70 40.79-3.41 40.88-2.38C41.03-0.78 42.32 0.26 44.05 0.26C45.17 0.26 46.06-0.08 46.68-0.85ZM51.02 0.26C52.98 0.26 54.13-0.77 54.28-2.38C54.37-3.41 54.36-4.70 54.31-5.69C54.23-7.61 52.90-8.66 51.02-8.66C49.15-8.66 47.90-7.60 47.82-5.69C47.77-4.70 47.76-3.41 47.86-2.38C48-0.78 49.30 0.26 51.02 0.26ZM51.02-1.18C50.21-1.18 49.57-1.54 49.45-2.66C49.36-3.55 49.38-4.80 49.42-5.48C49.49-6.72 50.08-7.20 51.02-7.24C52.09-7.24 52.63-6.78 52.72-5.48C52.76-4.80 52.78-3.55 52.68-2.66C52.56-1.62 51.88-1.21 51.02-1.18ZM64.49 0.12L64.49-8.52L62.48-8.52L60.43-4.06L58.42-8.52L56.41-8.52L56.41 0.12L57.91 0.12L57.91-6.32L59.83-2.04L60.98-2.04L62.87-6.29L62.87 0.12Z" transform="translate(-2.04, 8.664)"/></g></g></g></g></g><defs v-gra="od"/><defs v-gra="id"><filter id="fde5e615-e0df-4241-90cc-3c7aee86bbda" filterUnits="userSpaceOnUse"><feColorMatrix type="matrix" values="0 0 0 0 0.99609375  0 0 0 0 0.99609375  0 0 0 0 0.99609375  0 0 0 1 0"/></filter><linearGradient x1="0" y1="1" x2="0" y2="0" id="qCEHKXL8SLCmvA0KVc7AR"><stop offset="0%" stop-color="#ffecd2"/><stop offset="100%" stop-color="#fcb69f"/></linearGradient><filter id="42443b3f1de60f6b6fd3b6a9844b4764" filterUnits="objectBoundingBox"><feColorMatrix type="matrix" values="0 0 0 0 0.99609375  0 0 0 0 0.99609375  0 0 0 0 0.99609375  0 0 0 1 0"/></filter></defs><mask v-gra="im" id="083bd627-18fd-41e6-a6b5-02bc6f3d8268"><g class="iconsvg-imagesvg" filter="url(#fde5e615-e0df-4241-90cc-3c7aee86bbda)"><g><rect fill="#ffffff" fill-opacity="0" stroke-width="2" x="0" y="0" width="112.80000000000004" height="112.80000000000004" class="image-rect"/> <svg x="0" y="0" width="112.80000000000004" height="112.80000000000004" filtersec="colorsf8607485463" class="image-svg-svg primary" style="overflow: visible;"><svg xmlns="http://www.w3.org/2000/svg" viewBox="0 0 424 424"><defs><linearGradient id="a6369fc14-ecb3-4ef7-a49d-fa8227a7c376" x1="424" y1="212" x2="0" y2="212" gradientUnits="userSpaceOnUse"><stop offset="0" stop-opacity="0"/><stop offset="1"/></linearGradient></defs><circle cx="212" cy="212" r="212" fill="url(#a6369fc14-ecb3-4ef7-a49d-fa8227a7c376)"/></svg></svg> <defs><filter id="colors2175282017"><feColorMatrix type="matrix" values="0 0 0 0 0.80078125  0 0 0 0 0.546875  0 0 0 0 0.1640625  0 0 0 1 0" class="icon-fecolormatrix"/></filter> <filter id="colorsf8607485463"><feColorMatrix type="matrix" values="0 0 0 0 0.99609375  0 0 0 0 0.99609375  0 0 0 0 0.99609375  0 0 0 1 0" class="icon-fecolormatrix"/></filter> <filter id="colorsb5533667087"><feColorMatrix type="matrix" values="0 0 0 0 0  0 0 0 0 0  0 0 0 0 0  0 0 0 1 0" class="icon-fecolormatrix"/></filter></defs></g></g></mask></svg>